<?xml version="1.0" encoding="utf-8"?>
<!-- Generator: Adobe Illustrator 25.2.3, SVG Export Plug-In . SVG Version: 6.00 Build 0)  -->
<svg version="1.1" id="Layer_1" xmlns="http://www.w3.org/2000/svg" xmlns:xlink="http://www.w3.org/1999/xlink" x="0px" y="0px"
	 viewBox="0 0 800 600" style="enable-background:new 0 0 800 600;" xml:space="preserve">
<style type="text/css">
	.st0{fill:#FFFFFF;}
</style>
<g id="Layer_1_1_">
	<g id="svg_51">
		<g id="svg_41" transform="matrix(3.27559 0 0 3.27559 -104470 -79288)">
			<g id="svg_42">
				<path id="svg_43" class="st0" d="M31900.1,24309.7h-5.7v-50.6h5.7V24309.7z"/>
			</g>
			<g id="svg_44">
				<path id="svg_45" class="st0" d="M31954.5,24309.7h-6l-0.2-0.3c-2.6-3.8-22.3-33.1-27.8-41.2v41.5h-5.7v-50.6h5.7l0.2,0.3
					c2.6,3.8,22.6,33.3,28,41.5v-41.9h5.7L31954.5,24309.7L31954.5,24309.7L31954.5,24309.7z"/>
			</g>
			<g id="svg_46">
				<path id="svg_47" class="st0" d="M32066.1,24309.6h-12.6v-50.5h12.6c13.9,0,25.3,11.3,25.3,25.3
					C32091.3,24298.3,32080,24309.6,32066.1,24309.6z M32059.3,24303.9h6.8c10.8,0,19.5-8.8,19.5-19.5s-8.7-19.5-19.5-19.5h-6.8
					V24303.9z"/>
			</g>
			<polygon id="svg_48" class="st0" points="32009.3,24259.1 31974.8,24302.5 31974.8,24259.1 31969.2,24259.1 31969.2,24309.7 
				31975.3,24309.7 32015.3,24259.1 			"/>
			<polygon id="svg_49" class="st0" points="32032.7,24259.1 31992.6,24309.7 31998.7,24309.7 32033.2,24266.3 32033.2,24309.7 
				32038.8,24309.7 32038.8,24259.1 			"/>
			<polygon id="svg_50" class="st0" points="32136.8,24259.1 32102.6,24259.1 32102.6,24309.7 32136.8,24309.7 32136.8,24304.6 
				32108.3,24304.6 32108.3,24286.9 32133.4,24286.9 32133.4,24281.9 32108.3,24281.9 32108.3,24264.2 32136.8,24264.2 			"/>
		</g>
	</g>
</g>
</svg>
