<?xml version="1.0" encoding="utf-8"?>
<!-- Generator: Adobe Illustrator 25.2.1, SVG Export Plug-In . SVG Version: 6.00 Build 0)  -->
<svg version="1.1" id="Layer_1" xmlns="http://www.w3.org/2000/svg" xmlns:xlink="http://www.w3.org/1999/xlink" x="0px" y="0px"
	 viewBox="0 0 14400 14400" style="enable-background:new 0 0 14400 14400;" xml:space="preserve">
<style type="text/css">
	.st0{fill:#101820;}
</style>
<g>
	<g>
		<path class="st0" d="M6998.6,7244.6h-10v-88.9h10V7244.6z"/>
	</g>
	<g>
		<path class="st0" d="M7094.2,7244.6h-10.6l-0.4-0.6c-4.5-6.6-39.2-58.1-48.8-72.4v73h-10v-88.9h10l0.4,0.6
			c4.5,6.7,39.7,58.6,49.3,73v-73.6h10V7244.6z"/>
	</g>
	<g>
		<path class="st0" d="M7290.4,7244.4h-22.1v-88.8h22.1c24.5,0,44.4,19.9,44.4,44.4C7334.8,7224.5,7314.9,7244.4,7290.4,7244.4z
			 M7278.5,7234.3h11.9c18.9,0,34.2-15.4,34.2-34.2s-15.3-34.2-34.2-34.2h-11.9V7234.3z"/>
	</g>
	<polygon class="st0" points="7190.5,7155.7 7130,7232 7130,7155.7 7120,7155.7 7120,7244.6 7130.8,7244.6 7201.2,7155.7 	"/>
	<polygon class="st0" points="7231.7,7155.7 7161.2,7244.6 7172,7244.6 7232.5,7168.3 7232.5,7244.6 7242.5,7244.6 7242.5,7155.7 	
		"/>
	<polygon class="st0" points="7414.7,7155.7 7354.6,7155.7 7354.6,7244.6 7414.7,7244.6 7414.7,7235.6 7364.6,7235.6 7364.6,7204.5 
		7408.8,7204.5 7408.8,7195.7 7364.6,7195.7 7364.6,7164.6 7414.7,7164.6 	"/>
</g>
</svg>
