<?xml version="1.0" encoding="utf-8"?>
<!-- Generator: Adobe Illustrator 25.2.1, SVG Export Plug-In . SVG Version: 6.00 Build 0)  -->
<svg version="1.1" id="Layer_1" xmlns="http://www.w3.org/2000/svg" xmlns:xlink="http://www.w3.org/1999/xlink" x="0px" y="0px"
	 viewBox="0 0 14400 14400" style="enable-background:new 0 0 14400 14400;" xml:space="preserve">
<style type="text/css">
	.st0{fill:#101820;}
</style>
<g>
	<g>
		<path class="st0" d="M7084.5,7224.8h-5.7v-50.6h5.7V7224.8z"/>
	</g>
	<g>
		<path class="st0" d="M7138.9,7224.8h-6l-0.2-0.3c-2.6-3.8-22.3-33.1-27.8-41.2v41.5h-5.7v-50.6h5.7l0.2,0.3
			c2.6,3.8,22.6,33.3,28,41.5v-41.9h5.7L7138.9,7224.8L7138.9,7224.8z"/>
	</g>
	<g>
		<path class="st0" d="M7250.5,7224.7h-12.6v-50.5h12.6c13.9,0,25.3,11.3,25.3,25.3C7275.7,7213.4,7264.4,7224.7,7250.5,7224.7z
			 M7243.7,7219h6.8c10.8,0,19.5-8.8,19.5-19.5c0-10.7-8.7-19.5-19.5-19.5h-6.8V7219z"/>
	</g>
	<polygon class="st0" points="7193.7,7174.2 7159.2,7217.6 7159.2,7174.2 7153.6,7174.2 7153.6,7224.8 7159.7,7224.8 7199.7,7174.2
			"/>
	<polygon class="st0" points="7217.1,7174.2 7177,7224.8 7183.1,7224.8 7217.6,7181.4 7217.6,7224.8 7223.2,7224.8 7223.2,7174.2
		"/>
	<polygon class="st0" points="7321.2,7174.2 7287,7174.2 7287,7224.8 7321.2,7224.8 7321.2,7219.7 7292.7,7219.7 7292.7,7202
		7317.8,7202 7317.8,7197 7292.7,7197 7292.7,7179.3 7321.2,7179.3 	"/>
</g>
</svg>
